<?xml version="1.0" encoding="utf-8"?>
<!-- Generator: Adobe Illustrator 27.0.0, SVG Export Plug-In . SVG Version: 6.00 Build 0)  -->
<svg version="1.1" id="Layer_1" xmlns="http://www.w3.org/2000/svg" xmlns:xlink="http://www.w3.org/1999/xlink" x="0px" y="0px"
	 viewBox="0 0 30.5 30.5" style="enable-background:new 0 0 30.5 30.5;" xml:space="preserve">
<g>
	<g>
		<path d="M15.3,7c-3.9,0-7.1,2.7-8,6.3H11c0.7-1.6,2.4-2.7,4.2-2.7c2.6,0,4.6,2.1,4.6,4.6s-2.1,4.6-4.6,4.6c-1.9,0-3.5-1.1-4.2-2.7
			H7.3c0.9,3.6,4.1,6.3,8,6.3c4.5,0,8.2-3.7,8.2-8.2S19.8,7,15.3,7z"/>
	</g>
	<g>
		<path d="M15.3,0C6.8,0,0,6.8,0,15.3s6.8,15.3,15.3,15.3c8.4,0,15.3-6.8,15.3-15.3S23.7,0,15.3,0z M15.3,27
			C8.8,27,3.6,21.7,3.6,15.3S8.8,3.6,15.3,3.6C21.7,3.6,27,8.8,27,15.3S21.7,27,15.3,27z"/>
	</g>
</g>
</svg>
